<?xml version="1.0" encoding="UTF-8"?>
<!-- Generated by Pixelmator Pro 3.7 -->
<svg width="1024" height="1024" viewBox="0 0 1024 1024" xmlns="http://www.w3.org/2000/svg">
    <g id="layers-svgrepo-com-7">
        <path id="Path" fill="#56939a" stroke="none" d="M 766.610168 556.830261 L 566.579163 406.885376 C 536.446655 384.297913 487.592224 384.297913 457.485657 406.885376 L 257.454651 556.830261 C 227.322205 579.411255 227.322205 616.025635 257.454651 638.615356 L 457.485657 788.553711 C 487.600861 811.141235 536.45752 811.141235 566.579163 788.553711 L 766.610168 638.615356 C 796.740479 616.034302 796.740479 579.409058 766.610168 556.830261 Z"/>
        <path id="path1" fill="#63a2ac" stroke="none" d="M 766.610168 478.757324 L 566.579163 328.80365 C 536.446655 306.222717 487.592224 306.222717 457.485657 328.80365 L 257.454651 478.757324 C 227.322205 501.344727 227.322205 537.944092 257.454651 560.542297 L 457.485657 710.480713 C 487.600861 733.061768 536.45752 733.061768 566.579163 710.480713 L 766.610168 560.542297 C 796.740479 537.944092 796.740479 501.344727 766.610168 478.757324 Z"/>
        <path id="path2" fill="#75b7bb" stroke="none" d="M 766.610168 392.00708 L 566.579163 242.053528 C 536.446655 219.466064 487.592224 219.466064 457.485657 242.053528 L 257.454651 392.00708 C 227.322205 414.594543 227.322205 451.193848 257.454651 473.798584 L 457.485657 623.728394 C 487.600861 646.315857 536.45752 646.315857 566.579163 623.728394 L 766.610168 473.798584 C 796.740479 451.196045 796.740479 414.596741 766.610168 392.00708 Z"/>
    </g>
</svg>
